<svg xmlns="http://www.w3.org/2000/svg" version="1.1" xmlns:xlink="http://www.w3.org/1999/xlink" xmlns:svgjs="http://svgjs.com/svgjs" width="1440" height="560" preserveAspectRatio="none" viewBox="0 0 1440 560"><g mask="url(&quot;#SvgjsMask1002&quot;)" fill="none"><rect width="1440" height="560" x="0" y="0" fill="#0e2a47"></rect><path d="M-47.77 375.16L-47.77 375.16" stroke="#132e65" stroke-width="1.5"></path><path d="M-47.77 375.16L-47.71 555.86" stroke="#132e65" stroke-width="1.5"></path><path d="M-47.77 375.16L92.14 540.24" stroke="#132e65" stroke-width="1.5"></path><path d="M-47.77 375.16L44.87 642.44" stroke="#132e65" stroke-width="1.5"></path><path d="M-47.71 555.86L-47.71 555.86" stroke="#132e65" stroke-width="1.5"></path><path d="M-47.71 555.86L-95.72 666.03" stroke="#132e65" stroke-width="1.5"></path><path d="M-47.71 555.86L44.87 642.44" stroke="#132e65" stroke-width="1.5"></path><path d="M-47.71 555.86L92.14 540.24" stroke="#132e65" stroke-width="1.5"></path><path d="M-47.71 555.86L219.89 498.92" stroke="#132e65" stroke-width="1.5"></path><path d="M-95.72 666.03L-95.72 666.03" stroke="#132e65" stroke-width="1.5"></path><path d="M-95.72 666.03L44.87 642.44" stroke="#132e65" stroke-width="1.5"></path><path d="M-95.72 666.03L92.14 540.24" stroke="#132e65" stroke-width="1.5"></path><path d="M-95.72 666.03L-47.77 375.16" stroke="#132e65" stroke-width="1.5"></path><path d="M92.14 540.24L92.14 540.24" stroke="#132e65" stroke-width="1.5"></path><path d="M92.14 540.24L44.87 642.44" stroke="#132e65" stroke-width="1.5"></path><path d="M92.14 540.24L219.89 498.92" stroke="#132e65" stroke-width="1.5"></path><path d="M44.87 642.44L44.87 642.44" stroke="#132e65" stroke-width="1.5"></path><path d="M44.87 642.44L249.63 668.89" stroke="#132e65" stroke-width="1.5"></path><path d="M44.87 642.44L219.89 498.92" stroke="#132e65" stroke-width="1.5"></path><path d="M251.61 344.39L251.61 344.39" stroke="#132e65" stroke-width="1.5"></path><path d="M251.61 344.39L395.49 402.83" stroke="#132e65" stroke-width="1.5"></path><path d="M251.61 344.39L219.89 498.92" stroke="#132e65" stroke-width="1.5"></path><path d="M251.61 344.39L379.33 544.85" stroke="#132e65" stroke-width="1.5"></path><path d="M219.89 498.92L219.89 498.92" stroke="#132e65" stroke-width="1.5"></path><path d="M249.63 668.89L249.63 668.89" stroke="#132e65" stroke-width="1.5"></path><path d="M249.63 668.89L401.53 706.5" stroke="#132e65" stroke-width="1.5"></path><path d="M249.63 668.89L219.89 498.92" stroke="#132e65" stroke-width="1.5"></path><path d="M249.63 668.89L379.33 544.85" stroke="#132e65" stroke-width="1.5"></path><path d="M249.63 668.89L92.14 540.24" stroke="#132e65" stroke-width="1.5"></path><path d="M395.49 402.83L395.49 402.83" stroke="#132e65" stroke-width="1.5"></path><path d="M395.49 402.83L493.23 363.87" stroke="#132e65" stroke-width="1.5"></path><path d="M395.49 402.83L491.97 507.54" stroke="#132e65" stroke-width="1.5"></path><path d="M379.33 544.85L379.33 544.85" stroke="#132e65" stroke-width="1.5"></path><path d="M379.33 544.85L491.97 507.54" stroke="#132e65" stroke-width="1.5"></path><path d="M379.33 544.85L395.49 402.83" stroke="#132e65" stroke-width="1.5"></path><path d="M401.53 706.5L401.53 706.5" stroke="#132e65" stroke-width="1.5"></path><path d="M401.53 706.5L379.33 544.85" stroke="#132e65" stroke-width="1.5"></path><path d="M401.53 706.5L491.97 507.54" stroke="#132e65" stroke-width="1.5"></path><path d="M493.23 363.87L493.23 363.87" stroke="#132e65" stroke-width="1.5"></path><path d="M493.23 363.87L491.97 507.54" stroke="#132e65" stroke-width="1.5"></path><path d="M493.23 363.87L663.84 376.01" stroke="#132e65" stroke-width="1.5"></path><path d="M491.97 507.54L491.97 507.54" stroke="#132e65" stroke-width="1.5"></path><path d="M491.97 507.54L670.48 527.6" stroke="#132e65" stroke-width="1.5"></path><path d="M491.97 507.54L663.84 376.01" stroke="#132e65" stroke-width="1.5"></path><path d="M695.74 224.7L695.74 224.7" stroke="#132e65" stroke-width="1.5"></path><path d="M695.74 224.7L663.84 376.01" stroke="#132e65" stroke-width="1.5"></path><path d="M695.74 224.7L852.15 189.79" stroke="#132e65" stroke-width="1.5"></path><path d="M695.74 224.7L837.46 356.36" stroke="#132e65" stroke-width="1.5"></path><path d="M663.84 376.01L663.84 376.01" stroke="#132e65" stroke-width="1.5"></path><path d="M663.84 376.01L670.48 527.6" stroke="#132e65" stroke-width="1.5"></path><path d="M670.48 527.6L670.48 527.6" stroke="#132e65" stroke-width="1.5"></path><path d="M670.48 527.6L803.37 506.96" stroke="#132e65" stroke-width="1.5"></path><path d="M670.48 527.6L658.95 665.84" stroke="#132e65" stroke-width="1.5"></path><path d="M658.95 665.84L658.95 665.84" stroke="#132e65" stroke-width="1.5"></path><path d="M658.95 665.84L798.51 662.03" stroke="#132e65" stroke-width="1.5"></path><path d="M658.95 665.84L803.37 506.96" stroke="#132e65" stroke-width="1.5"></path><path d="M852.15 189.79L852.15 189.79" stroke="#132e65" stroke-width="1.5"></path><path d="M852.15 189.79L981.97 218.15" stroke="#132e65" stroke-width="1.5"></path><path d="M852.15 189.79L959.03 85.36" stroke="#132e65" stroke-width="1.5"></path><path d="M837.46 356.36L837.46 356.36" stroke="#132e65" stroke-width="1.5"></path><path d="M837.46 356.36L982.85 354.12" stroke="#132e65" stroke-width="1.5"></path><path d="M837.46 356.36L803.37 506.96" stroke="#132e65" stroke-width="1.5"></path><path d="M837.46 356.36L852.15 189.79" stroke="#132e65" stroke-width="1.5"></path><path d="M803.37 506.96L803.37 506.96" stroke="#132e65" stroke-width="1.5"></path><path d="M803.37 506.96L798.51 662.03" stroke="#132e65" stroke-width="1.5"></path><path d="M803.37 506.96L663.84 376.01" stroke="#132e65" stroke-width="1.5"></path><path d="M798.51 662.03L798.51 662.03" stroke="#132e65" stroke-width="1.5"></path><path d="M798.51 662.03L670.48 527.6" stroke="#132e65" stroke-width="1.5"></path><path d="M798.51 662.03L991.57 664.31" stroke="#132e65" stroke-width="1.5"></path><path d="M798.51 662.03L996.65 548.4" stroke="#132e65" stroke-width="1.5"></path><path d="M966.58 -97.16L966.58 -97.16" stroke="#132e65" stroke-width="1.5"></path><path d="M966.58 -97.16L959.03 85.36" stroke="#132e65" stroke-width="1.5"></path><path d="M966.58 -97.16L1097.66 94.73" stroke="#132e65" stroke-width="1.5"></path><path d="M966.58 -97.16L852.15 189.79" stroke="#132e65" stroke-width="1.5"></path><path d="M966.58 -97.16L1275.08 -79.42" stroke="#132e65" stroke-width="1.5"></path><path d="M959.03 85.36L959.03 85.36" stroke="#132e65" stroke-width="1.5"></path><path d="M959.03 85.36L981.97 218.15" stroke="#132e65" stroke-width="1.5"></path><path d="M959.03 85.36L1097.66 94.73" stroke="#132e65" stroke-width="1.5"></path><path d="M981.97 218.15L981.97 218.15" stroke="#132e65" stroke-width="1.5"></path><path d="M982.85 354.12L982.85 354.12" stroke="#132e65" stroke-width="1.5"></path><path d="M982.85 354.12L981.97 218.15" stroke="#132e65" stroke-width="1.5"></path><path d="M982.85 354.12L1114.06 403.43" stroke="#132e65" stroke-width="1.5"></path><path d="M982.85 354.12L996.65 548.4" stroke="#132e65" stroke-width="1.5"></path><path d="M982.85 354.12L1157.51 258.34" stroke="#132e65" stroke-width="1.5"></path><path d="M996.65 548.4L996.65 548.4" stroke="#132e65" stroke-width="1.5"></path><path d="M996.65 548.4L991.57 664.31" stroke="#132e65" stroke-width="1.5"></path><path d="M996.65 548.4L1153.29 522.07" stroke="#132e65" stroke-width="1.5"></path><path d="M996.65 548.4L1091.3 705.9" stroke="#132e65" stroke-width="1.5"></path><path d="M996.65 548.4L1114.06 403.43" stroke="#132e65" stroke-width="1.5"></path><path d="M991.57 664.31L991.57 664.31" stroke="#132e65" stroke-width="1.5"></path><path d="M991.57 664.31L1091.3 705.9" stroke="#132e65" stroke-width="1.5"></path><path d="M991.57 664.31L1153.29 522.07" stroke="#132e65" stroke-width="1.5"></path><path d="M991.57 664.31L803.37 506.96" stroke="#132e65" stroke-width="1.5"></path><path d="M991.57 664.31L1114.06 403.43" stroke="#132e65" stroke-width="1.5"></path><path d="M1097.66 94.73L1097.66 94.73" stroke="#132e65" stroke-width="1.5"></path><path d="M1097.66 94.73L981.97 218.15" stroke="#132e65" stroke-width="1.5"></path><path d="M1097.66 94.73L1270.16 80.07" stroke="#132e65" stroke-width="1.5"></path><path d="M1097.66 94.73L1157.51 258.34" stroke="#132e65" stroke-width="1.5"></path><path d="M1157.51 258.34L1157.51 258.34" stroke="#132e65" stroke-width="1.5"></path><path d="M1157.51 258.34L1304.34 241.59" stroke="#132e65" stroke-width="1.5"></path><path d="M1157.51 258.34L1114.06 403.43" stroke="#132e65" stroke-width="1.5"></path><path d="M1157.51 258.34L1273.39 392.18" stroke="#132e65" stroke-width="1.5"></path><path d="M1114.06 403.43L1114.06 403.43" stroke="#132e65" stroke-width="1.5"></path><path d="M1114.06 403.43L1153.29 522.07" stroke="#132e65" stroke-width="1.5"></path><path d="M1153.29 522.07L1153.29 522.07" stroke="#132e65" stroke-width="1.5"></path><path d="M1153.29 522.07L1273.39 392.18" stroke="#132e65" stroke-width="1.5"></path><path d="M1153.29 522.07L1091.3 705.9" stroke="#132e65" stroke-width="1.5"></path><path d="M1153.29 522.07L1305.19 648.89" stroke="#132e65" stroke-width="1.5"></path><path d="M1091.3 705.9L1091.3 705.9" stroke="#132e65" stroke-width="1.5"></path><path d="M1275.08 -79.42L1275.08 -79.42" stroke="#132e65" stroke-width="1.5"></path><path d="M1275.08 -79.42L1270.16 80.07" stroke="#132e65" stroke-width="1.5"></path><path d="M1275.08 -79.42L1441.83 -102.98" stroke="#132e65" stroke-width="1.5"></path><path d="M1275.08 -79.42L1392.38 105.05" stroke="#132e65" stroke-width="1.5"></path><path d="M1270.16 80.07L1270.16 80.07" stroke="#132e65" stroke-width="1.5"></path><path d="M1270.16 80.07L1392.38 105.05" stroke="#132e65" stroke-width="1.5"></path><path d="M1270.16 80.07L1304.34 241.59" stroke="#132e65" stroke-width="1.5"></path><path d="M1304.34 241.59L1304.34 241.59" stroke="#132e65" stroke-width="1.5"></path><path d="M1304.34 241.59L1393.5 234.08" stroke="#132e65" stroke-width="1.5"></path><path d="M1304.34 241.59L1273.39 392.18" stroke="#132e65" stroke-width="1.5"></path><path d="M1273.39 392.18L1273.39 392.18" stroke="#132e65" stroke-width="1.5"></path><path d="M1273.39 392.18L1423.91 410.64" stroke="#132e65" stroke-width="1.5"></path><path d="M1273.39 392.18L1114.06 403.43" stroke="#132e65" stroke-width="1.5"></path><path d="M1273.39 392.18L1411.37 496.83" stroke="#132e65" stroke-width="1.5"></path><path d="M1305.19 648.89L1305.19 648.89" stroke="#132e65" stroke-width="1.5"></path><path d="M1305.19 648.89L1428.39 666.12" stroke="#132e65" stroke-width="1.5"></path><path d="M1305.19 648.89L1411.37 496.83" stroke="#132e65" stroke-width="1.5"></path><path d="M1305.19 648.89L1091.3 705.9" stroke="#132e65" stroke-width="1.5"></path><path d="M1305.19 648.89L1273.39 392.18" stroke="#132e65" stroke-width="1.5"></path><path d="M1305.19 648.89L1423.91 410.64" stroke="#132e65" stroke-width="1.5"></path><path d="M1441.83 -102.98L1441.83 -102.98" stroke="#132e65" stroke-width="1.5"></path><path d="M1441.83 -102.98L1392.38 105.05" stroke="#132e65" stroke-width="1.5"></path><path d="M1441.83 -102.98L1270.16 80.07" stroke="#132e65" stroke-width="1.5"></path><path d="M1441.83 -102.98L1602.32 91.72" stroke="#132e65" stroke-width="1.5"></path><path d="M1392.38 105.05L1392.38 105.05" stroke="#132e65" stroke-width="1.5"></path><path d="M1392.38 105.05L1393.5 234.08" stroke="#132e65" stroke-width="1.5"></path><path d="M1392.38 105.05L1304.34 241.59" stroke="#132e65" stroke-width="1.5"></path><path d="M1392.38 105.05L1602.32 91.72" stroke="#132e65" stroke-width="1.5"></path><path d="M1393.5 234.08L1393.5 234.08" stroke="#132e65" stroke-width="1.5"></path><path d="M1393.5 234.08L1423.91 410.64" stroke="#132e65" stroke-width="1.5"></path><path d="M1393.5 234.08L1581.85 223.26" stroke="#132e65" stroke-width="1.5"></path><path d="M1393.5 234.08L1270.16 80.07" stroke="#132e65" stroke-width="1.5"></path><path d="M1423.91 410.64L1423.91 410.64" stroke="#132e65" stroke-width="1.5"></path><path d="M1423.91 410.64L1411.37 496.83" stroke="#132e65" stroke-width="1.5"></path><path d="M1423.91 410.64L1562.7 340.46" stroke="#132e65" stroke-width="1.5"></path><path d="M1423.91 410.64L1548.51 537.27" stroke="#132e65" stroke-width="1.5"></path><path d="M1411.37 496.83L1411.37 496.83" stroke="#132e65" stroke-width="1.5"></path><path d="M1411.37 496.83L1548.51 537.27" stroke="#132e65" stroke-width="1.5"></path><path d="M1411.37 496.83L1428.39 666.12" stroke="#132e65" stroke-width="1.5"></path><path d="M1428.39 666.12L1428.39 666.12" stroke="#132e65" stroke-width="1.5"></path><path d="M1428.39 666.12L1592.08 667.6" stroke="#132e65" stroke-width="1.5"></path><path d="M1428.39 666.12L1548.51 537.27" stroke="#132e65" stroke-width="1.5"></path><path d="M1428.39 666.12L1423.91 410.64" stroke="#132e65" stroke-width="1.5"></path><path d="M1602.32 91.72L1602.32 91.72" stroke="#132e65" stroke-width="1.5"></path><path d="M1602.32 91.72L1581.85 223.26" stroke="#132e65" stroke-width="1.5"></path><path d="M1602.32 91.72L1562.7 340.46" stroke="#132e65" stroke-width="1.5"></path><path d="M1581.85 223.26L1581.85 223.26" stroke="#132e65" stroke-width="1.5"></path><path d="M1581.85 223.26L1562.7 340.46" stroke="#132e65" stroke-width="1.5"></path><path d="M1562.7 340.46L1562.7 340.46" stroke="#132e65" stroke-width="1.5"></path><path d="M1562.7 340.46L1548.51 537.27" stroke="#132e65" stroke-width="1.5"></path><path d="M1562.7 340.46L1393.5 234.08" stroke="#132e65" stroke-width="1.5"></path><path d="M1562.7 340.46L1411.37 496.83" stroke="#132e65" stroke-width="1.5"></path><path d="M1548.51 537.27L1548.51 537.27" stroke="#132e65" stroke-width="1.5"></path><path d="M1548.51 537.27L1592.08 667.6" stroke="#132e65" stroke-width="1.5"></path><path d="M1592.08 667.6L1592.08 667.6" stroke="#132e65" stroke-width="1.5"></path><path d="M1592.08 667.6L1411.37 496.83" stroke="#132e65" stroke-width="1.5"></path><path d="M1592.08 667.6L1305.19 648.89" stroke="#132e65" stroke-width="1.5"></path><path d="M1592.08 667.6L1423.91 410.64" stroke="#132e65" stroke-width="1.5"></path><circle r="5" cx="-47.77" cy="375.16" fill="#132e65"></circle><circle r="5" cx="-47.71" cy="555.86" fill="#132e65"></circle><circle r="5" cx="-95.72" cy="666.03" fill="#132e65"></circle><circle r="5" cx="92.14" cy="540.24" fill="#132e65"></circle><circle r="5" cx="44.87" cy="642.44" fill="#132e65"></circle><circle r="5" cx="251.61" cy="344.39" fill="#132e65"></circle><circle r="5" cx="219.89" cy="498.92" fill="#132e65"></circle><circle r="5" cx="249.63" cy="668.89" fill="#132e65"></circle><circle r="5" cx="395.49" cy="402.83" fill="#132e65"></circle><circle r="5" cx="379.33" cy="544.85" fill="#132e65"></circle><circle r="5" cx="401.53" cy="706.5" fill="#132e65"></circle><circle r="5" cx="493.23" cy="363.87" fill="#132e65"></circle><circle r="5" cx="491.97" cy="507.54" fill="#132e65"></circle><circle r="5" cx="695.74" cy="224.7" fill="#132e65"></circle><circle r="5" cx="663.84" cy="376.01" fill="#132e65"></circle><circle r="5" cx="670.48" cy="527.6" fill="#132e65"></circle><circle r="5" cx="658.95" cy="665.84" fill="#132e65"></circle><circle r="5" cx="852.15" cy="189.79" fill="#132e65"></circle><circle r="5" cx="837.46" cy="356.36" fill="#132e65"></circle><circle r="5" cx="803.37" cy="506.96" fill="#132e65"></circle><circle r="5" cx="798.51" cy="662.03" fill="#132e65"></circle><circle r="5" cx="966.58" cy="-97.16" fill="#132e65"></circle><circle r="5" cx="959.03" cy="85.36" fill="#132e65"></circle><circle r="5" cx="981.97" cy="218.15" fill="#132e65"></circle><circle r="5" cx="982.85" cy="354.12" fill="#132e65"></circle><circle r="5" cx="996.65" cy="548.4" fill="#132e65"></circle><circle r="5" cx="991.57" cy="664.31" fill="#132e65"></circle><circle r="5" cx="1097.66" cy="94.73" fill="#132e65"></circle><circle r="5" cx="1157.51" cy="258.34" fill="#132e65"></circle><circle r="5" cx="1114.06" cy="403.43" fill="#132e65"></circle><circle r="5" cx="1153.29" cy="522.07" fill="#132e65"></circle><circle r="5" cx="1091.3" cy="705.9" fill="#132e65"></circle><circle r="5" cx="1275.08" cy="-79.42" fill="#132e65"></circle><circle r="5" cx="1270.16" cy="80.07" fill="#132e65"></circle><circle r="5" cx="1304.34" cy="241.59" fill="#132e65"></circle><circle r="5" cx="1273.39" cy="392.18" fill="#132e65"></circle><circle r="5" cx="1305.19" cy="648.89" fill="#132e65"></circle><circle r="5" cx="1441.83" cy="-102.98" fill="#132e65"></circle><circle r="5" cx="1392.38" cy="105.05" fill="#132e65"></circle><circle r="5" cx="1393.5" cy="234.08" fill="#132e65"></circle><circle r="5" cx="1423.91" cy="410.64" fill="#132e65"></circle><circle r="5" cx="1411.37" cy="496.83" fill="#132e65"></circle><circle r="5" cx="1428.39" cy="666.12" fill="#132e65"></circle><circle r="5" cx="1602.32" cy="91.72" fill="#132e65"></circle><circle r="5" cx="1581.85" cy="223.26" fill="#132e65"></circle><circle r="5" cx="1562.7" cy="340.46" fill="#132e65"></circle><circle r="5" cx="1548.51" cy="537.27" fill="#132e65"></circle><circle r="5" cx="1592.08" cy="667.6" fill="#132e65"></circle><path d="M343.83 541L343.83 541" stroke="hsl(228.5, 77.2%, 51.5%)" stroke-width="1.5"></path><path d="M343.83 541L228.1 491.88" stroke="hsl(228.5, 77.2%, 51.5%)" stroke-width="1.5"></path><path d="M343.83 541L393.65 693.98" stroke="hsl(228.5, 77.2%, 51.5%)" stroke-width="1.5"></path><path d="M343.83 541L496.02 411.35" stroke="hsl(228.5, 77.2%, 51.5%)" stroke-width="1.5"></path><path d="M343.83 541L492.42 683.04" stroke="hsl(228.5, 77.2%, 51.5%)" stroke-width="1.5"></path><path d="M343.83 541L190.57 689.8" stroke="hsl(228.5, 77.2%, 51.5%)" stroke-width="1.5"></path><path d="M343.83 541L106.93 679.07" stroke="hsl(228.5, 77.2%, 51.5%)" stroke-width="1.5"></path><path d="M496.02 411.35L496.02 411.35" stroke="hsl(228.5, 77.2%, 51.5%)" stroke-width="1.5"></path><path d="M496.02 411.35L679.12 366.2" stroke="hsl(228.5, 77.2%, 51.5%)" stroke-width="1.5"></path><path d="M791.55 368.26L791.55 368.26" stroke="hsl(228.5, 77.2%, 51.5%)" stroke-width="1.5"></path><path d="M791.55 368.26L679.12 366.2" stroke="hsl(228.5, 77.2%, 51.5%)" stroke-width="1.5"></path><path d="M791.55 368.26L838.31 504.91" stroke="hsl(228.5, 77.2%, 51.5%)" stroke-width="1.5"></path><path d="M791.55 368.26L977.27 368.54" stroke="hsl(228.5, 77.2%, 51.5%)" stroke-width="1.5"></path><path d="M791.55 368.26L689.45 532.87" stroke="hsl(228.5, 77.2%, 51.5%)" stroke-width="1.5"></path><path d="M992.15 489.38L992.15 489.38" stroke="hsl(228.5, 77.2%, 51.5%)" stroke-width="1.5"></path><path d="M992.15 489.38L977.27 368.54" stroke="hsl(228.5, 77.2%, 51.5%)" stroke-width="1.5"></path><path d="M992.15 489.38L1103.95 554.56" stroke="hsl(228.5, 77.2%, 51.5%)" stroke-width="1.5"></path><path d="M1300.36 672.43L1300.36 672.43" stroke="hsl(228.5, 77.2%, 51.5%)" stroke-width="1.5"></path><path d="M1300.36 672.43L1391.62 673.22" stroke="hsl(228.5, 77.2%, 51.5%)" stroke-width="1.5"></path><path d="M1300.36 672.43L1287.38 521.27" stroke="hsl(228.5, 77.2%, 51.5%)" stroke-width="1.5"></path><path d="M1408.92 -87.48L1408.92 -87.48" stroke="hsl(228.5, 77.2%, 51.5%)" stroke-width="1.5"></path><path d="M1408.92 -87.48L1552.23 -40.28" stroke="hsl(228.5, 77.2%, 51.5%)" stroke-width="1.5"></path><path d="M1408.92 -87.48L1278.83 44.5" stroke="hsl(228.5, 77.2%, 51.5%)" stroke-width="1.5"></path><path d="M1430.21 199.86L1430.21 199.86" stroke="hsl(228.5, 77.2%, 51.5%)" stroke-width="1.5"></path><path d="M1430.21 199.86L1566.83 234.93" stroke="hsl(228.5, 77.2%, 51.5%)" stroke-width="1.5"></path><path d="M1430.21 199.86L1389.03 340.92" stroke="hsl(228.5, 77.2%, 51.5%)" stroke-width="1.5"></path><path d="M1430.21 199.86L1237.78 208.73" stroke="hsl(228.5, 77.2%, 51.5%)" stroke-width="1.5"></path><path d="M1430.21 199.86L1278.83 44.5" stroke="hsl(228.5, 77.2%, 51.5%)" stroke-width="1.5"></path><path d="M1430.21 199.86L1570.77 391.08" stroke="hsl(228.5, 77.2%, 51.5%)" stroke-width="1.5"></path><path d="M1389.03 340.92L1389.03 340.92" stroke="hsl(228.5, 77.2%, 51.5%)" stroke-width="1.5"></path><path d="M1389.03 340.92L1258.35 406.87" stroke="hsl(228.5, 77.2%, 51.5%)" stroke-width="1.5"></path><path d="M1566.83 234.93L1566.83 234.93" stroke="hsl(228.5, 77.2%, 51.5%)" stroke-width="1.5"></path><path d="M1566.83 234.93L1570.77 391.08" stroke="hsl(228.5, 77.2%, 51.5%)" stroke-width="1.5"></path><path d="M1566.83 234.93L1389.03 340.92" stroke="hsl(228.5, 77.2%, 51.5%)" stroke-width="1.5"></path><path d="M1554.91 555.47L1554.91 555.47" stroke="hsl(228.5, 77.2%, 51.5%)" stroke-width="1.5"></path><path d="M1554.91 555.47L1457.88 525.26" stroke="hsl(228.5, 77.2%, 51.5%)" stroke-width="1.5"></path><path d="M1554.91 555.47L1596.77 657.3" stroke="hsl(228.5, 77.2%, 51.5%)" stroke-width="1.5"></path><path d="M-73.67 552.43L-73.67 552.43" stroke="hsl(228.5, 77.2%, 51.5%)" stroke-width="1.5"></path><path d="M-73.67 552.43L-93.59 646.02" stroke="hsl(228.5, 77.2%, 51.5%)" stroke-width="1.5"></path><path d="M-73.67 552.43L106.93 679.07" stroke="hsl(228.5, 77.2%, 51.5%)" stroke-width="1.5"></path><path d="M-93.59 646.02L-93.59 646.02" stroke="hsl(228.5, 77.2%, 51.5%)" stroke-width="1.5"></path><path d="M-93.59 646.02L106.93 679.07" stroke="hsl(228.5, 77.2%, 51.5%)" stroke-width="1.5"></path><path d="M106.93 679.07L106.93 679.07" stroke="hsl(228.5, 77.2%, 51.5%)" stroke-width="1.5"></path><path d="M106.93 679.07L190.57 689.8" stroke="hsl(228.5, 77.2%, 51.5%)" stroke-width="1.5"></path><path d="M106.93 679.07L228.1 491.88" stroke="hsl(228.5, 77.2%, 51.5%)" stroke-width="1.5"></path><path d="M228.1 491.88L228.1 491.88" stroke="hsl(228.5, 77.2%, 51.5%)" stroke-width="1.5"></path><path d="M228.1 491.88L190.57 689.8" stroke="hsl(228.5, 77.2%, 51.5%)" stroke-width="1.5"></path><path d="M228.1 491.88L393.65 693.98" stroke="hsl(228.5, 77.2%, 51.5%)" stroke-width="1.5"></path><path d="M228.1 491.88L496.02 411.35" stroke="hsl(228.5, 77.2%, 51.5%)" stroke-width="1.5"></path><path d="M228.1 491.88L-73.67 552.43" stroke="hsl(228.5, 77.2%, 51.5%)" stroke-width="1.5"></path><path d="M190.57 689.8L190.57 689.8" stroke="hsl(228.5, 77.2%, 51.5%)" stroke-width="1.5"></path><path d="M190.57 689.8L393.65 693.98" stroke="hsl(228.5, 77.2%, 51.5%)" stroke-width="1.5"></path><path d="M190.57 689.8L-93.59 646.02" stroke="hsl(228.5, 77.2%, 51.5%)" stroke-width="1.5"></path><path d="M393.65 693.98L393.65 693.98" stroke="hsl(228.5, 77.2%, 51.5%)" stroke-width="1.5"></path><path d="M393.65 693.98L492.42 683.04" stroke="hsl(228.5, 77.2%, 51.5%)" stroke-width="1.5"></path><path d="M492.42 683.04L492.42 683.04" stroke="hsl(228.5, 77.2%, 51.5%)" stroke-width="1.5"></path><path d="M492.42 683.04L672.63 701.11" stroke="hsl(228.5, 77.2%, 51.5%)" stroke-width="1.5"></path><path d="M492.42 683.04L689.45 532.87" stroke="hsl(228.5, 77.2%, 51.5%)" stroke-width="1.5"></path><path d="M492.42 683.04L496.02 411.35" stroke="hsl(228.5, 77.2%, 51.5%)" stroke-width="1.5"></path><path d="M679.12 366.2L679.12 366.2" stroke="hsl(228.5, 77.2%, 51.5%)" stroke-width="1.5"></path><path d="M679.12 366.2L689.45 532.87" stroke="hsl(228.5, 77.2%, 51.5%)" stroke-width="1.5"></path><path d="M689.45 532.87L689.45 532.87" stroke="hsl(228.5, 77.2%, 51.5%)" stroke-width="1.5"></path><path d="M689.45 532.87L838.31 504.91" stroke="hsl(228.5, 77.2%, 51.5%)" stroke-width="1.5"></path><path d="M689.45 532.87L672.63 701.11" stroke="hsl(228.5, 77.2%, 51.5%)" stroke-width="1.5"></path><path d="M689.45 532.87L496.02 411.35" stroke="hsl(228.5, 77.2%, 51.5%)" stroke-width="1.5"></path><path d="M689.45 532.87L843.29 706.09" stroke="hsl(228.5, 77.2%, 51.5%)" stroke-width="1.5"></path><path d="M672.63 701.11L672.63 701.11" stroke="hsl(228.5, 77.2%, 51.5%)" stroke-width="1.5"></path><path d="M672.63 701.11L843.29 706.09" stroke="hsl(228.5, 77.2%, 51.5%)" stroke-width="1.5"></path><path d="M672.63 701.11L838.31 504.91" stroke="hsl(228.5, 77.2%, 51.5%)" stroke-width="1.5"></path><path d="M672.63 701.11L393.65 693.98" stroke="hsl(228.5, 77.2%, 51.5%)" stroke-width="1.5"></path><path d="M838.31 504.91L838.31 504.91" stroke="hsl(228.5, 77.2%, 51.5%)" stroke-width="1.5"></path><path d="M843.29 706.09L843.29 706.09" stroke="hsl(228.5, 77.2%, 51.5%)" stroke-width="1.5"></path><path d="M843.29 706.09L838.31 504.91" stroke="hsl(228.5, 77.2%, 51.5%)" stroke-width="1.5"></path><path d="M843.29 706.09L992.15 489.38" stroke="hsl(228.5, 77.2%, 51.5%)" stroke-width="1.5"></path><path d="M843.29 706.09L1137.74 684.98" stroke="hsl(228.5, 77.2%, 51.5%)" stroke-width="1.5"></path><path d="M843.29 706.09L1103.95 554.56" stroke="hsl(228.5, 77.2%, 51.5%)" stroke-width="1.5"></path><path d="M977.27 368.54L977.27 368.54" stroke="hsl(228.5, 77.2%, 51.5%)" stroke-width="1.5"></path><path d="M977.27 368.54L838.31 504.91" stroke="hsl(228.5, 77.2%, 51.5%)" stroke-width="1.5"></path><path d="M977.27 368.54L1140.67 255.83" stroke="hsl(228.5, 77.2%, 51.5%)" stroke-width="1.5"></path><path d="M1144.11 82.99L1144.11 82.99" stroke="hsl(228.5, 77.2%, 51.5%)" stroke-width="1.5"></path><path d="M1144.11 82.99L1278.83 44.5" stroke="hsl(228.5, 77.2%, 51.5%)" stroke-width="1.5"></path><path d="M1144.11 82.99L1237.78 208.73" stroke="hsl(228.5, 77.2%, 51.5%)" stroke-width="1.5"></path><path d="M1144.11 82.99L1140.67 255.83" stroke="hsl(228.5, 77.2%, 51.5%)" stroke-width="1.5"></path><path d="M1144.11 82.99L1430.21 199.86" stroke="hsl(228.5, 77.2%, 51.5%)" stroke-width="1.5"></path><path d="M1144.11 82.99L1408.92 -87.48" stroke="hsl(228.5, 77.2%, 51.5%)" stroke-width="1.5"></path><path d="M1140.67 255.83L1140.67 255.83" stroke="hsl(228.5, 77.2%, 51.5%)" stroke-width="1.5"></path><path d="M1140.67 255.83L1237.78 208.73" stroke="hsl(228.5, 77.2%, 51.5%)" stroke-width="1.5"></path><path d="M1140.67 255.83L1258.35 406.87" stroke="hsl(228.5, 77.2%, 51.5%)" stroke-width="1.5"></path><path d="M1140.67 255.83L1278.83 44.5" stroke="hsl(228.5, 77.2%, 51.5%)" stroke-width="1.5"></path><path d="M1103.95 554.56L1103.95 554.56" stroke="hsl(228.5, 77.2%, 51.5%)" stroke-width="1.5"></path><path d="M1103.95 554.56L1137.74 684.98" stroke="hsl(228.5, 77.2%, 51.5%)" stroke-width="1.5"></path><path d="M1137.74 684.98L1137.74 684.98" stroke="hsl(228.5, 77.2%, 51.5%)" stroke-width="1.5"></path><path d="M1137.74 684.98L1300.36 672.43" stroke="hsl(228.5, 77.2%, 51.5%)" stroke-width="1.5"></path><path d="M1137.74 684.98L1287.38 521.27" stroke="hsl(228.5, 77.2%, 51.5%)" stroke-width="1.5"></path><path d="M1137.74 684.98L992.15 489.38" stroke="hsl(228.5, 77.2%, 51.5%)" stroke-width="1.5"></path><path d="M1278.83 44.5L1278.83 44.5" stroke="hsl(228.5, 77.2%, 51.5%)" stroke-width="1.5"></path><path d="M1278.83 44.5L1237.78 208.73" stroke="hsl(228.5, 77.2%, 51.5%)" stroke-width="1.5"></path><path d="M1237.78 208.73L1237.78 208.73" stroke="hsl(228.5, 77.2%, 51.5%)" stroke-width="1.5"></path><path d="M1258.35 406.87L1258.35 406.87" stroke="hsl(228.5, 77.2%, 51.5%)" stroke-width="1.5"></path><path d="M1258.35 406.87L1287.38 521.27" stroke="hsl(228.5, 77.2%, 51.5%)" stroke-width="1.5"></path><path d="M1258.35 406.87L1237.78 208.73" stroke="hsl(228.5, 77.2%, 51.5%)" stroke-width="1.5"></path><path d="M1258.35 406.87L1103.95 554.56" stroke="hsl(228.5, 77.2%, 51.5%)" stroke-width="1.5"></path><path d="M1258.35 406.87L1457.88 525.26" stroke="hsl(228.5, 77.2%, 51.5%)" stroke-width="1.5"></path><path d="M1287.38 521.27L1287.38 521.27" stroke="hsl(228.5, 77.2%, 51.5%)" stroke-width="1.5"></path><path d="M1457.88 525.26L1457.88 525.26" stroke="hsl(228.5, 77.2%, 51.5%)" stroke-width="1.5"></path><path d="M1457.88 525.26L1391.62 673.22" stroke="hsl(228.5, 77.2%, 51.5%)" stroke-width="1.5"></path><path d="M1391.62 673.22L1391.62 673.22" stroke="hsl(228.5, 77.2%, 51.5%)" stroke-width="1.5"></path><path d="M1552.23 -40.28L1552.23 -40.28" stroke="hsl(228.5, 77.2%, 51.5%)" stroke-width="1.5"></path><path d="M1552.23 -40.28L1430.21 199.86" stroke="hsl(228.5, 77.2%, 51.5%)" stroke-width="1.5"></path><path d="M1552.23 -40.28L1566.83 234.93" stroke="hsl(228.5, 77.2%, 51.5%)" stroke-width="1.5"></path><path d="M1552.23 -40.28L1278.83 44.5" stroke="hsl(228.5, 77.2%, 51.5%)" stroke-width="1.5"></path><path d="M1570.77 391.08L1570.77 391.08" stroke="hsl(228.5, 77.2%, 51.5%)" stroke-width="1.5"></path><path d="M1570.77 391.08L1554.91 555.47" stroke="hsl(228.5, 77.2%, 51.5%)" stroke-width="1.5"></path><path d="M1570.77 391.08L1457.88 525.26" stroke="hsl(228.5, 77.2%, 51.5%)" stroke-width="1.5"></path><path d="M1570.77 391.08L1389.03 340.92" stroke="hsl(228.5, 77.2%, 51.5%)" stroke-width="1.5"></path><path d="M1596.77 657.3L1596.77 657.3" stroke="hsl(228.5, 77.2%, 51.5%)" stroke-width="1.5"></path><path d="M1596.77 657.3L1457.88 525.26" stroke="hsl(228.5, 77.2%, 51.5%)" stroke-width="1.5"></path><path d="M1596.77 657.3L1391.62 673.22" stroke="hsl(228.5, 77.2%, 51.5%)" stroke-width="1.5"></path><path d="M1596.77 657.3L1570.77 391.08" stroke="hsl(228.5, 77.2%, 51.5%)" stroke-width="1.5"></path><path d="M1596.77 657.3L1300.36 672.43" stroke="hsl(228.5, 77.2%, 51.5%)" stroke-width="1.5"></path><circle r="25" cx="343.83" cy="541" fill="url(#SvgjsRadialGradient1003)"></circle><circle r="25" cx="496.02" cy="411.35" fill="url(#SvgjsRadialGradient1003)"></circle><circle r="25" cx="791.55" cy="368.26" fill="url(#SvgjsRadialGradient1003)"></circle><circle r="25" cx="992.15" cy="489.38" fill="url(#SvgjsRadialGradient1003)"></circle><circle r="25" cx="1300.36" cy="672.43" fill="url(#SvgjsRadialGradient1003)"></circle><circle r="25" cx="1408.92" cy="-87.48" fill="url(#SvgjsRadialGradient1003)"></circle><circle r="25" cx="1430.21" cy="199.86" fill="url(#SvgjsRadialGradient1003)"></circle><circle r="25" cx="1389.03" cy="340.92" fill="url(#SvgjsRadialGradient1003)"></circle><circle r="25" cx="1566.83" cy="234.93" fill="url(#SvgjsRadialGradient1003)"></circle><circle r="25" cx="1554.91" cy="555.47" fill="url(#SvgjsRadialGradient1003)"></circle><circle r="5" cx="-73.67" cy="552.43" fill="#8b9ad9"></circle><circle r="5" cx="-93.59" cy="646.02" fill="#8b9ad9"></circle><circle r="5" cx="106.93" cy="679.07" fill="#8b9ad9"></circle><circle r="5" cx="228.1" cy="491.88" fill="#8b9ad9"></circle><circle r="5" cx="190.57" cy="689.8" fill="#8b9ad9"></circle><circle r="5" cx="393.65" cy="693.98" fill="#8b9ad9"></circle><circle r="5" cx="492.42" cy="683.04" fill="#8b9ad9"></circle><circle r="5" cx="679.12" cy="366.2" fill="#8b9ad9"></circle><circle r="5" cx="689.45" cy="532.87" fill="#8b9ad9"></circle><circle r="5" cx="672.63" cy="701.11" fill="#8b9ad9"></circle><circle r="5" cx="838.31" cy="504.91" fill="#8b9ad9"></circle><circle r="5" cx="843.29" cy="706.09" fill="#8b9ad9"></circle><circle r="5" cx="977.27" cy="368.54" fill="#8b9ad9"></circle><circle r="5" cx="1144.11" cy="82.99" fill="#8b9ad9"></circle><circle r="5" cx="1140.67" cy="255.83" fill="#8b9ad9"></circle><circle r="5" cx="1103.95" cy="554.56" fill="#8b9ad9"></circle><circle r="5" cx="1137.74" cy="684.98" fill="#8b9ad9"></circle><circle r="5" cx="1278.83" cy="44.5" fill="#8b9ad9"></circle><circle r="5" cx="1237.78" cy="208.73" fill="#8b9ad9"></circle><circle r="5" cx="1258.35" cy="406.87" fill="#8b9ad9"></circle><circle r="5" cx="1287.38" cy="521.27" fill="#8b9ad9"></circle><circle r="5" cx="1457.88" cy="525.26" fill="#8b9ad9"></circle><circle r="5" cx="1391.62" cy="673.22" fill="#8b9ad9"></circle><circle r="5" cx="1552.23" cy="-40.28" fill="#8b9ad9"></circle><circle r="5" cx="1570.77" cy="391.08" fill="#8b9ad9"></circle><circle r="5" cx="1596.77" cy="657.3" fill="#8b9ad9"></circle></g><defs><mask id="SvgjsMask1002"><rect width="1440" height="560" fill="#ffffff"></rect></mask><radialGradient id="SvgjsRadialGradient1003"><stop stop-color="#ffffff" offset="0.1"></stop><stop stop-color="#1735b3" offset="0.2"></stop><stop stop-color="rgba(23, 53, 179, 0)" offset="1"></stop></radialGradient></defs></svg>